<svg width="50" height="74" fill="none" xmlns="http://www.w3.org/2000/svg"><path d="M0 27.23c0 14.272 11.793 38.058 25.943 45.194C38.208 66.24 50 42.929 50 29.134c0-13.796-9.434-28.068-24.057-28.068C11.321 1.066 0 12.96 0 27.231z" fill="#fff"/><path d="M3.071 21.995a13.332 13.332 0 01-.247-3.942c.138-1.344.447-2.665.92-3.929A19.722 19.722 0 018.163 7.35c3.9-3.94 8.98-6.46 14.443-7.167a23.222 23.222 0 014.177-.148 21.77 21.77 0 014.18.67 21.594 21.594 0 017.602 3.743 26.622 26.622 0 015.735 6.176 37.276 37.276 0 012.084 3.608 35.728 35.728 0 011.644 3.821 32.514 32.514 0 011.736 8.186 36.373 36.373 0 01-.327 8.286 48.494 48.494 0 01-.817 4.023c-.327 1.328-.741 2.616-1.18 3.893a51.924 51.924 0 01-1.476 3.773 63.5 63.5 0 01-1.733 3.619 75.161 75.161 0 01-8.823 13.138 82.799 82.799 0 01-5.277 5.799 80.62 80.62 0 01-2.819 2.694c-.957.868-1.933 1.741-2.97 2.536a126.022 126.022 0 009.306-12.368 90.597 90.597 0 007.418-13.362c2.032-4.624 3.563-9.447 4.156-14.333.593-4.885.197-9.8-1.433-14.321a33.773 33.773 0 00-1.412-3.328 33.139 33.139 0 00-1.79-3.134 22.84 22.84 0 00-4.66-5.265 18.361 18.361 0 00-6.054-3.284 17.967 17.967 0 00-3.404-.723 19.661 19.661 0 00-3.53-.11A23.487 23.487 0 009.664 9.026a19.742 19.742 0 00-2.659 2.58 18.287 18.287 0 00-2.127 3.052 14.466 14.466 0 00-1.808 7.337z" fill="#DD291C"/><path d="M23.544 54.33c-1.619-.585-3.087-1.598-4.43-2.695a31.357 31.357 0 01-3.722-3.702 37.707 37.707 0 01-5.7-8.952 31.575 31.575 0 01-1.021-2.506 34.144 34.144 0 01-.82-2.608 25.69 25.69 0 01-.834-5.51 22.35 22.35 0 01.08-2.856c.097-.968.268-1.926.51-2.867.244-.95.568-1.875.968-2.768a17.62 17.62 0 011.438-2.557 18.736 18.736 0 018.841-7.046 17.999 17.999 0 015.536-1.175c1.899-.095 3.8.148 5.616.72.905.29 1.782.668 2.616 1.129a13.48 13.48 0 012.33 1.646 13.37 13.37 0 013.317 4.49c.38.828.682 1.691.902 2.578.22.868.37 1.753.446 2.646.074.876.089 1.757.046 2.635a22.568 22.568 0 01-.293 2.587c-.093-.86-.18-1.711-.337-2.546a27.26 27.26 0 00-.57-2.458 16.175 16.175 0 00-2.012-4.414 12.593 12.593 0 00-1.47-1.81 11.688 11.688 0 00-1.75-1.455 11.454 11.454 0 00-4.095-1.712 14.335 14.335 0 00-8.713 1.046 15.88 15.88 0 00-3.757 2.366 15.861 15.861 0 00-2.925 3.317 13.712 13.712 0 00-1.792 3.966 15.58 15.58 0 00-.417 2.183 17.734 17.734 0 00-.141 2.266c.008 1.563.167 3.121.473 4.653.31 1.58.727 3.136 1.25 4.657a48.496 48.496 0 004.169 8.94 42.559 42.559 0 002.778 4.152 28.44 28.44 0 001.614 1.93 14.72 14.72 0 001.87 1.73zM1.742 32.773c.027.469.107.933.239 1.383.122.44.268.874.436 1.299.327.846.713 1.673 1.117 2.49.797 1.63 1.688 3.233 2.59 4.809 1.802 3.172 3.685 6.297 5.583 9.412a354.987 354.987 0 005.828 9.27 96.39 96.39 0 003.095 4.497 32.31 32.31 0 001.697 2.136 12.158 12.158 0 002.015 1.886 7.731 7.731 0 01-2.773-.878 18.754 18.754 0 01-2.486-1.544 33.164 33.164 0 01-4.313-3.842 54.325 54.325 0 01-6.913-9.116 55.282 55.282 0 01-4.95-10.328A33.613 33.613 0 011.43 38.62a17.546 17.546 0 01-.248-2.948c0-.5.039-.998.117-1.49.072-.49.221-.967.442-1.41z" fill="#DD291C"/></svg>