<svg width="50" height="74" viewBox="0 0 50 74" fill="none" xmlns="http://www.w3.org/2000/svg">
<path d="M0 27.2308C0 41.5023 11.7925 65.2881 25.9434 72.4239C38.2075 66.2396 50 42.9295 50 29.1337C50 15.3379 40.566 1.06641 25.9434 1.06641C11.3208 1.06641 0 12.9593 0 27.2308Z" fill="white"/>
<path d="M3.07105 21.9952C2.79339 20.7013 2.71002 19.3723 2.82377 18.0531C2.96178 16.7088 3.27101 15.3883 3.74375 14.1245C4.73657 11.5799 6.24156 9.27288 8.16282 7.35037C12.0636 3.40977 17.1424 0.889375 22.6059 0.182874C23.9912 0.00800726 25.389 -0.0415884 26.783 0.0346744C28.1943 0.121934 29.594 0.346617 30.9628 0.705617C33.7141 1.43656 36.297 2.70822 38.5645 4.44834C40.788 6.18501 42.724 8.2698 44.2997 10.6242C45.0609 11.7863 45.7568 12.9909 46.3843 14.2322C47.0055 15.4721 47.5541 16.748 48.0275 18.0531C48.956 20.6934 49.5397 23.4454 49.7638 26.2391C49.971 29.0046 49.8612 31.785 49.4367 34.5249C49.224 35.8722 48.9475 37.2194 48.6204 38.5478C48.2934 39.8763 47.8786 41.1642 47.4399 42.4415C47.0012 43.7187 46.5013 44.9743 45.9642 46.2138C45.4271 47.4533 44.8395 48.6389 44.2306 49.8326C41.7566 54.516 38.7994 58.9202 35.4084 62.9712C33.7333 64.9867 31.9811 66.9295 30.1305 68.7699C29.2079 69.6914 28.2693 70.5968 27.3121 71.4644C26.3549 72.3321 25.3791 73.2051 24.3421 74C27.6921 70.0752 30.8001 65.9447 33.6482 61.632C36.4905 57.3992 38.9722 52.929 41.0665 48.2698C43.0979 43.6459 44.6294 38.8227 45.2224 33.9375C45.8153 29.0523 45.4191 24.1374 43.7892 19.6159C43.3781 18.4817 42.9068 17.3708 42.3774 16.2882C41.8379 15.2112 41.2405 14.1651 40.5879 13.1544C39.3122 11.1657 37.7398 9.38958 35.9269 7.88928C34.1296 6.41986 32.0759 5.30566 29.8726 4.60463C28.7635 4.25425 27.6239 4.01243 26.4692 3.88249C25.2978 3.73978 24.1162 3.70281 22.9382 3.77201C18.0862 4.09981 13.4517 5.93447 9.66509 9.02638C8.70106 9.79965 7.81085 10.663 7.0062 11.6051C6.19615 12.5464 5.4834 13.5694 4.87909 14.658C3.63822 16.8952 3.01374 19.4294 3.07105 21.9952Z" fill="#DD291C"/>
<path d="M23.5445 54.3296C21.9252 53.7449 20.4575 52.7317 19.1148 51.635C17.774 50.5085 16.5289 49.2701 15.3923 47.9327C13.083 45.2379 11.1636 42.224 9.69168 38.9814C9.31766 38.1659 8.97732 37.3306 8.67067 36.4755C8.36223 35.624 8.09635 34.7591 7.85173 33.8672C7.37457 32.067 7.09458 30.2191 7.01684 28.3568C6.98248 27.404 7.00912 26.4499 7.0966 25.5006C7.19429 24.5331 7.36496 23.5747 7.60711 22.6336C7.851 21.6848 8.1748 20.759 8.57495 19.8663C8.98278 18.9745 9.46396 18.1191 10.0134 17.3092C12.1767 14.0964 15.2634 11.6363 18.8542 10.2629C20.6278 9.58147 22.4956 9.18508 24.39 9.08812C26.289 8.99251 28.1898 9.23604 30.0056 9.80756C30.9114 10.0981 31.7875 10.4761 32.6219 10.9366C33.4533 11.4007 34.2341 11.9526 34.9511 12.5829C36.3577 13.825 37.4886 15.355 38.2694 17.0721C38.6495 17.9009 38.9513 18.7643 39.1707 19.6507C39.3911 20.5188 39.5405 21.4038 39.6174 22.2968C39.6909 23.1732 39.706 24.0536 39.6626 24.9321C39.615 25.7994 39.5173 26.6631 39.3702 27.5188C39.2771 26.6593 39.1894 25.8078 39.0325 24.9725C38.8756 24.1372 38.6922 23.3153 38.4635 22.515C38.0173 20.9489 37.3386 19.4607 36.4507 18.1014C36.0171 17.4529 35.5248 16.8467 34.9803 16.2906C34.4451 15.7493 33.8592 15.2619 33.2308 14.8356C31.9878 14.0026 30.5972 13.4215 29.1361 13.1245C26.1949 12.5534 23.1513 12.9186 20.4229 14.17C19.068 14.7775 17.8034 15.5738 16.6659 16.5358C15.5427 17.4974 14.5582 18.614 13.7412 19.8528C12.9375 21.0688 12.3324 22.4081 11.9491 23.8192C11.7582 24.5356 11.6187 25.265 11.5316 26.0018C11.4363 26.7533 11.3892 27.5102 11.3907 28.2679C11.3995 29.8309 11.558 31.3894 11.864 32.9214C12.1734 34.501 12.5909 36.0568 13.1137 37.5776C14.1973 40.6947 15.5943 43.6906 17.2828 46.5181C18.1275 47.9564 19.0553 49.3429 20.0613 50.6704C20.5718 51.3359 21.1063 51.9799 21.6753 52.5997C22.2476 53.2302 22.873 53.809 23.5445 54.3296Z" fill="#DD291C"/>
<path d="M1.74161 32.7734C1.7687 33.242 1.849 33.7058 1.98091 34.1557C2.10348 34.5962 2.24904 35.0297 2.41696 35.4545C2.74401 36.3006 3.12954 37.1278 3.5337 37.9443C4.33136 39.5745 5.22209 41.1777 6.12345 42.754C7.92618 45.9255 9.80867 49.0512 11.7071 52.1661C13.6056 55.281 15.5412 58.3797 17.5354 61.4353C18.5325 62.9605 19.5508 64.4694 20.6303 65.9325C21.1621 66.6655 21.7311 67.3795 22.3267 68.0693C22.9259 68.7733 23.602 69.4061 24.3421 69.9555C23.3716 69.8412 22.4309 69.5432 21.5689 69.0771C20.702 68.6284 19.8708 68.1122 19.0829 67.5331C17.5379 66.3816 16.0949 65.096 14.7701 63.6907C12.1545 60.9081 9.83721 57.8525 7.85704 54.575C5.8555 51.3169 4.19617 47.8553 2.9062 44.2468C2.25296 42.4187 1.75918 40.5361 1.43052 38.6206C1.26528 37.6469 1.18255 36.6607 1.18324 35.6728C1.18244 35.1737 1.22156 34.6754 1.30023 34.1827C1.37231 33.6921 1.52131 33.2163 1.74161 32.7734Z" fill="#DD291C"/>
</svg>
